<svg xmlns="http://www.w3.org/2000/svg" version="1.1" xmlns:xlink="http://www.w3.org/1999/xlink" xmlns:svgjs="http://svgjs.dev/svgjs" width="1500" height="1500" viewBox="0 0 1500 1500"><rect width="1500" height="1500" fill="#000000"></rect><g transform="matrix(0.6666666666666666,0,0,0.6666666666666666,249.39393939393938,624.3351388065678)"><svg viewBox="0 0 396 100" data-background-color="#000000" preserveAspectRatio="xMidYMid meet" height="378" width="1500" xmlns="http://www.w3.org/2000/svg" xmlns:xlink="http://www.w3.org/1999/xlink"><g id="tight-bounds" transform="matrix(1,0,0,1,0.2400000000000091,-0.13299158990787419)"><svg viewBox="0 0 395.52 100.26598317981578" height="100.26598317981578" width="395.52"><g><svg viewBox="0 0 395.52 100.26598317981578" height="100.26598317981578" width="395.52"><g><svg viewBox="0 0 395.52 100.26598317981578" height="100.26598317981578" width="395.52"><g><svg viewBox="0 0 395.52 100.26598317981578" height="100.26598317981578" width="395.52"><g id="textblocktransform"><svg viewBox="0 0 395.52 100.26598317981578" height="100.26598317981578" width="395.52" id="textblock"><g><svg viewBox="0 0 395.52 100.26598317981578" height="100.26598317981578" width="395.52"><g transform="matrix(1,0,0,1,0,0)"><svg width="395.52" viewBox="3.75 -30.95 124.84 31.65" height="100.26598317981578" data-palette-color="url(#686c89f2-ce68-4c57-aa4e-c919ac7e9eed)"><g class="wordmark-text-0" data-fill-palette-color="primary" id="text-0"></g></svg></g></svg></g></svg></g></svg></g></svg></g></svg></g><defs></defs><mask id="91da33a7-8f56-4e57-a97a-dcf99e8d0720"><g id="SvgjsG2111"><svg viewBox="0 0 395.52 100.26598317981578" height="100.26598317981578" width="395.52"><g><svg viewBox="0 0 395.52 100.26598317981578" height="100.26598317981578" width="395.52"><g><svg viewBox="0 0 395.52 100.26598317981578" height="100.26598317981578" width="395.52"><g><svg viewBox="0 0 395.52 100.26598317981578" height="100.26598317981578" width="395.52"><g id="SvgjsG2110"><svg viewBox="0 0 395.52 100.26598317981578" height="100.26598317981578" width="395.52" id="SvgjsSvg2109"><g><svg viewBox="0 0 395.52 100.26598317981578" height="100.26598317981578" width="395.52"><g transform="matrix(1,0,0,1,0,0)"><svg width="395.52" viewBox="3.75 -30.95 124.84 31.65" height="100.26598317981578" data-palette-color="url(#686c89f2-ce68-4c57-aa4e-c919ac7e9eed)"><g class="wordmark-text-0" data-fill-palette-color="primary" id="SvgjsG2108"><path d="M3.75-8.45L3.75-8.45 3.75-13 7.75-13 7.75-8.65Q7.75-5.45 9.45-4.05 11.15-2.65 14.15-2.65L14.15-2.65Q16.15-2.65 17.55-3.08 18.95-3.5 19.75-3.95L19.75-3.95 19.75-13 23.75-13 23.75-4.1Q23.75-3.05 23.48-2.43 23.2-1.8 22.15-1.2L22.15-1.2Q21.05-0.55 19 0.05 16.95 0.65 14.1 0.65L14.1 0.65Q10.8 0.65 8.47-0.33 6.15-1.3 4.95-3.33 3.75-5.35 3.75-8.45ZM23.75-21.5L23.75-10.4 19.75-10.4 19.75-23Q20-23.1 20.53-23.23 21.05-23.35 21.6-23.35L21.6-23.35Q22.7-23.35 23.23-22.93 23.75-22.5 23.75-21.5L23.75-21.5ZM7.75-21.5L7.75-10.4 3.75-10.4 3.75-23Q4-23.1 4.53-23.23 5.05-23.35 5.65-23.35L5.65-23.35Q6.7-23.35 7.23-22.93 7.75-22.5 7.75-21.5L7.75-21.5ZM41.1-10.85L31.95-10.85 31.95-28.2Q31.95-29 32.37-29.43 32.8-29.85 33.6-30.1L33.6-30.1Q35.05-30.55 37.12-30.75 39.2-30.95 41.15-30.95L41.15-30.95Q47.5-30.95 50.42-28.28 53.35-25.6 53.35-21.05L53.35-21.05Q53.35-17.95 52.02-15.65 50.7-13.35 48-12.1 45.3-10.85 41.1-10.85L41.1-10.85ZM34.15 0.25L34.15 0.25Q33.05 0.25 32.5-0.2 31.95-0.65 31.95-1.6L31.95-1.6 31.95-12.8 36.05-12.8 36.05-0.1Q35.75 0 35.25 0.13 34.75 0.25 34.15 0.25ZM36-27.1L36-14.25 40.85-14.25Q44.85-14.25 47.05-15.93 49.25-17.6 49.25-21L49.25-21Q49.25-24.4 47.12-25.98 45-27.55 41.05-27.55L41.05-27.55Q39.7-27.55 38.37-27.43 37.05-27.3 36-27.1L36-27.1ZM67.84 0.7L67.84 0.7Q63.14 0.7 60.57-1.15 57.99-3 57.99-6.5L57.99-6.5Q57.99-9.75 60.17-11.48 62.34-13.2 66.19-13.55L66.19-13.55 73.3-14.25 73.3-15.65Q73.3-18.15 71.8-19.3 70.3-20.45 67.75-20.45L67.75-20.45Q65.69-20.45 63.82-19.85 61.95-19.25 60.49-18.5L60.49-18.5Q60.09-18.85 59.77-19.33 59.45-19.8 59.45-20.3L59.45-20.3Q59.45-21.6 60.89-22.3L60.89-22.3Q62.24-23 64.02-23.38 65.8-23.75 67.8-23.75L67.8-23.75Q72.14-23.75 74.69-21.8 77.25-19.85 77.25-15.65L77.25-15.65 77.25-3.8Q77.25-2.7 76.82-2.13 76.39-1.55 75.55-1.05L75.55-1.05Q74.34-0.4 72.34 0.15 70.34 0.7 67.84 0.7ZM67.84-2.6L67.84-2.6Q69.94-2.6 71.32-3.03 72.69-3.45 73.3-3.85L73.3-3.85 73.3-11.1 67.09-10.45Q64.5-10.25 63.24-9.3 61.99-8.35 61.99-6.55L61.99-6.55Q61.99-4.7 63.47-3.65 64.94-2.6 67.84-2.6ZM95.24-20.4L95.24-20.4Q91.84-20.4 89.59-18.1 87.34-15.8 87.34-11.5L87.34-11.5Q87.34-7.25 89.52-4.95 91.69-2.65 95.24-2.65L95.24-2.65Q97.34-2.65 98.74-3.23 100.14-3.8 101.24-4.55L101.24-4.55Q101.79-4.25 102.14-3.8 102.49-3.35 102.49-2.7L102.49-2.7Q102.49-1.3 100.42-0.33 98.34 0.65 95.24 0.65L95.24 0.65Q91.79 0.65 89.07-0.68 86.34-2 84.79-4.7 83.24-7.4 83.24-11.5L83.24-11.5Q83.24-15.55 84.84-18.28 86.44-21 89.17-22.38 91.89-23.75 95.14-23.75L95.14-23.75Q98.24-23.75 100.27-22.7 102.29-21.65 102.29-20.3L102.29-20.3Q102.29-19.7 101.94-19.25 101.59-18.8 101.04-18.55L101.04-18.55Q99.94-19.3 98.62-19.85 97.29-20.4 95.24-20.4ZM126.69-11.35L109.89-9 109.69-12.15 124.79-14.2Q124.59-16.95 122.89-18.73 121.19-20.5 118.19-20.5L118.19-20.5Q115.09-20.5 113.07-18.28 111.04-16.05 111.04-11.9L111.04-11.9 111.04-10.8Q111.39-6.8 113.67-4.73 115.94-2.65 119.89-2.65L119.89-2.65Q121.99-2.65 123.69-3.35 125.39-4.05 126.39-4.85L126.39-4.85Q126.94-4.5 127.27-4.03 127.59-3.55 127.59-2.95L127.59-2.95Q127.59-2 126.52-1.18 125.44-0.35 123.67 0.15 121.89 0.65 119.69 0.65L119.69 0.65Q115.84 0.65 113.02-0.75 110.19-2.15 108.67-4.93 107.14-7.7 107.14-11.7L107.14-11.7Q107.14-14.55 107.97-16.78 108.79-19 110.27-20.55 111.74-22.1 113.79-22.93 115.84-23.75 118.24-23.75L118.24-23.75Q121.29-23.75 123.62-22.45 125.94-21.15 127.27-18.82 128.59-16.5 128.59-13.5L128.59-13.5Q128.59-12.4 128.09-11.93 127.59-11.45 126.69-11.35L126.69-11.35Z" fill="white"></path></g></svg></g></svg></g></svg></g></svg></g></svg></g></svg></g><defs><mask></mask></defs></svg><rect width="395.52" height="100.26598317981578" fill="black" stroke="none" visibility="hidden"></rect></g></mask><linearGradient x1="0" x2="1" y1="0.548" y2="0.55" id="686c89f2-ce68-4c57-aa4e-c919ac7e9eed"><stop stop-color="#ff6cab" offset="0"></stop><stop stop-color="#7366ff" offset="1"></stop></linearGradient><rect width="395.52" height="100.26598317981578" fill="url(#686c89f2-ce68-4c57-aa4e-c919ac7e9eed)" mask="url(#91da33a7-8f56-4e57-a97a-dcf99e8d0720)" data-fill-palette-color="primary"></rect></svg><rect width="395.52" height="100.26598317981578" fill="none" stroke="none" visibility="hidden"></rect></g></svg></g></svg>